#!OML:ASF F:\VICON\USERDATA\INSTALL\Justin_Nancy\Justin_Nancy.ASF
:FULLY-SPECIFIED
:DEGREES
331
root 6.92923 17.4356 15.5127 -0.937559 38.443 -1.14314
lowerback 4.57048 0.837666 0.793765
upperback 0.149212 1.21649 1.99815
thorax -2.43611 0.611831 1.52836
lowerneck -14.5397 -3.39959 -9.36598
upperneck 25.3391 -3.22843 3.85871
head 10.7961 -1.84957 2.54928
rclavicle 4.65405e-014 -1.82882e-014
rhumerus -30.1893 -13.1298 -78.8441
rradius 36.6745
rwrist 3.74619
rhand -15.9113 13.0953
rfingers 7.12502
rthumb 10.2857 -16.6332
lclavicle 4.65405e-014 -1.82882e-014
lhumerus -36.8409 19.1765 80.1564
lradius 18.1488
lwrist -20.5335
lhand -11.1108 26.217
lfingers 7.12502
lthumb 14.9137 55.6601
rfemur 2.79969 0.574519 24.7912
rtibia 44.9727
rfoot 9.23915 7.44382
rtoes -2.38064
lfemur -22.6845 -0.52573 -21.8351
ltibia 26.4948
lfoot -4.63356 -1.27274
ltoes 2.22479
332
root 7.03997 17.4474 15.6393 -0.972479 38.344 -0.987129
lowerback 4.61203 0.80146 0.688547
upperback 0.257264 1.1614 1.99915
thorax -2.34914 0.585387 1.59226
lowerneck -14.9128 -3.38825 -9.61809
upperneck 25.5639 -3.14836 4.00198
head 10.9552 -1.82083 2.65577
rclavicle -3.75206e-015 -9.54166e-015
rhumerus -30.3936 -13.103 -78.8541
rradius 36.5572
rwrist 3.74371
rhand -15.4193 12.8665
rfingers 7.12502
rthumb 10.7603 -16.8379
lclavicle -3.75206e-015 -9.54166e-015
lhumerus -36.7049 18.2246 80.8612
lradius 18.7823
lwrist -19.0279
lhand -10.9566 26.0103
lfingers 7.12502
lthumb 15.0623 55.4424
rfemur 1.50794 0.586689 24.4612
rtibia 47.5224
rfoot 11.491 7.36098
rtoes 1.46727
lfemur -21.7775 -0.435793 -22.0832
ltibia 26.0882
lfoot -4.38868 -1.31168
ltoes 2.57891
333
root 7.1499 17.4605 15.7611 -0.485177 38.4014 -0.0628773
lowerback 4.62886 0.779633 0.0240543
upperback 0.346149 1.08934 1.77853
thorax -2.27336 0.554092 1.74338
lowerneck -15.0376 -3.38058 -9.72978
upperneck 25.4983 -3.14142 4.16599
head 10.959 -1.80755 2.73379
rclavicle 7.7203e-014 7.95139e-015
rhumerus -30.6098 -13.246 -78.892
rradius 36.3592
rwrist 3.81736
rhand -14.8398 13.1007
rfingers 7.12502
rthumb 11.3192 -16.5738
lclavicle 7.7203e-014 7.95139e-015
lhumerus -36.355 17.2842 81.5005
lradius 19.1234
lwrist -17.8107
lhand -11.2484 26.8505
lfingers 7.12502
lthumb 14.7812 56.3034
rfemur 0.173728 0.391018 23.4179
rtibia 50.109
rfoot 13.2975 7.3879
rtoes 3.82699
lfemur -20.8537 -0.290885 -23.0605
ltibia 25.5569
lfoot -4.19951 -1.1009
ltoes 2.4969
334
root 7.25674 17.4757 15.8806 0.33765 38.4084 1.34589
lowerback 4.70878 0.807093 -1.07233
upperback 0.338861 1.05925 1.46992
thorax -2.33867 0.548136 2.04276
lowerneck -14.7596 -3.3278 -9.59042
upperneck 25.13 -3.08569 3.9971
head 10.7573 -1.78644 2.65244
rclavicle 1.37012e-013 9.54166e-015
rhumerus -30.956 -12.8203 -79.0625
rradius 36.0719
rwrist 3.0922
rhand -15.094 13.6943
rfingers 7.12502
rthumb 11.0741 -15.9936
lclavicle 1.37012e-013 9.54166e-015
lhumerus -36.1726 17.1016 81.5803
lradius 19.0709
lwrist -17.8419
lhand -11.4171 27.0417
lfingers 7.12502
lthumb 14.6186 56.5064
rfemur -1.241 0.304436 21.9798
rtibia 52.6887
rfoot 14.8147 7.48718
rtoes 5.58249
lfemur -19.9799 0.111888 -24.4666
ltibia 25.0501
lfoot -4.14736 -1.26367
ltoes 2.52417
335
root 7.36132 17.4873 16.0017 0.610771 38.4105 1.83228
lowerback 4.76833 0.715676 -1.44919
upperback 0.367252 0.914834 1.40112
thorax -2.34126 0.479272 2.19321
lowerneck -14.9541 -3.17963 -9.49425
upperneck 25.1075 -2.82441 3.7839
head 10.7621 -1.68216 2.59325
rclavicle 4.38072e-014 -6.36111e-015
rhumerus -31.1752 -12.1428 -79.3214
rradius 35.8923
rwrist 2.88437
rhand -15.3816 13.8181
rfingers 7.12502
rthumb 10.7967 -15.8845
lclavicle 4.38072e-014 -6.36111e-015
lhumerus -35.9897 17.2632 81.4991
lradius 18.9764
lwrist -18.0396
lhand -11.1076 24.0307
lfingers 7.12502
lthumb 14.9169 53.4736
rfemur -2.64542 0.235367 21.4089
rtibia 55.1685
rfoot 15.7298 7.37978
rtoes 6.98341
lfemur -19.1439 0.333716 -24.988
ltibia 24.5778
lfoot -4.07052 -1.51513
ltoes 3.4228
336
root 7.46478 17.5015 16.1245 0.682665 38.3843 2.09135
lowerback 4.88576 0.59193 -1.69397
upperback 0.395765 0.736211 1.42883
thorax -2.37239 0.392921 2.37104
lowerneck -15.1777 -3.06531 -9.63672
upperneck 25.2425 -2.5808 3.71036
head 10.8401 -1.5943 2.62512
rclavicle 6.48535e-014 1.74931e-014
rhumerus -31.5015 -12.0219 -79.3549
rradius 35.8818
rwrist 3.92689
rhand -14.96 13.5792
rfingers 7.12502
rthumb 11.2033 -16.1017
lclavicle 6.48535e-014 1.74931e-014
lhumerus -35.7579 16.8633 81.8851
lradius 19.0719
lwrist -17.3283
lhand -11.3368 21.6073
lfingers 7.12502
lthumb 14.696 51.0664
rfemur -3.95874 0.295348 21.1147
rtibia 57.5123
rfoot 15.8662 6.8387
rtoes 6.87998
lfemur -18.257 0.224414 -25.2364
ltibia 24.2381
lfoot -4.12916 -1.33266
ltoes 4.1114
